# xmcd
#
# Track frame offsets:
# 182
# 12612
# 27595
# 42902
# 56950
# 69290
# 82637
# 95917
# 108295
# 120280
# 132032
# 144632
#
# Disc length: 2115 seconds
#
#
# Revision: 1
# Processed by: cddbd v1.5.2PL0 Copyright (c) Steve Scherf et al.
# Submitted via: FreeRIP 2.945 
#
DISCID=9f08410c
DTITLE=Tonico e Tinoco - Tonico e Tinoco
DYEAR=1900
DGENRE=Country
TTITLE0=Moreninha Linda
TTITLE1=Chico Mineiro
TTITLE2=Tristeza do Jeca
TTITLE3=Adeus Morena Adeus
TTITLE4=Destinos Iguais
TTITLE5=Irmão da Estrada
TTITLE6=Cana Verde
TTITLE7=Pé de Ipê
TTITLE8=Adeus Campina da Serra
TTITLE9=Curitibana
TTITLE10=Carro de Boi
TTITLE11=Moça Folgazona
EXTD=
EXTT0=
EXTT1=
EXTT2=
EXTT3=
EXTT4=
EXTT5=
EXTT6=
EXTT7=
EXTT8=
EXTT9=
EXTT10=
EXTT11=
PLAYORDER=
